<svg width="900" height="900" viewBox="0 0 900 900" fill="none" xmlns="http://www.w3.org/2000/svg">
<path fill-rule="evenodd" clip-rule="evenodd" d="M187.179 393.436C180.203 387.348 173.1 385.572 163.841 385.572C152.933 385.572 138.473 390.392 138.473 404.345C138.473 418.043 152.045 422.102 163.333 422.99C171.832 423.498 175.256 425.147 175.256 429.332C175.256 433.772 170.056 436.689 164.348 436.562C157.626 436.435 147.859 432.884 143.673 428.191L136.316 438.845C145.068 447.978 154.581 449.627 164.094 449.627C181.218 449.627 189.97 440.494 189.97 429.84C189.97 413.858 175.637 411.321 164.221 410.56C156.484 410.052 153.059 407.896 153.059 403.964C153.059 400.159 156.991 398.003 163.968 398.003C169.675 398.003 174.622 399.398 178.808 403.33L187.179 393.436Z" fill="#F89522"/>
<path fill-rule="evenodd" clip-rule="evenodd" d="M206.586 371.874V387.348H195.424V400.159H206.586V426.161C206.586 441.128 215.084 448.612 228.149 448.105C232.715 447.978 236.14 447.217 240.452 445.568L236.266 432.884C234.11 434.025 231.447 434.66 229.037 434.66C224.343 434.66 221.299 431.869 221.299 426.161V400.159H238.042V387.348H221.426V370.225L206.586 371.874Z" fill="#F89522"/>
<path fill-rule="evenodd" clip-rule="evenodd" d="M276.348 399.145C299.687 399.145 299.687 435.548 276.348 435.548C266.454 435.548 258.59 428.698 258.59 417.283C258.463 405.74 266.454 399.145 276.348 399.145ZM294.106 395.593C290.681 389.632 283.07 385.826 274.953 385.826C257.449 385.699 243.623 396.608 243.623 417.283C243.623 438.338 256.814 449.373 274.572 449.247C281.295 449.12 290.681 445.695 294.106 438.592L294.867 447.344H308.946V387.222H294.74L294.106 395.593Z" fill="#F89522"/>
<path fill-rule="evenodd" clip-rule="evenodd" d="M318.332 387.221V447.344H333.172V415.634C333.172 404.598 340.402 400.413 348.14 400.413C352.959 400.413 355.877 401.808 358.921 404.345L365.644 391.407C362.346 388.109 356.384 385.699 350.169 385.699C344.081 385.699 337.865 386.841 333.172 394.198L332.031 387.221H318.332Z" fill="#F89522"/>
<path fill-rule="evenodd" clip-rule="evenodd" d="M383.909 371.874V387.348H372.747V400.159H383.909V426.161C383.909 441.128 392.407 448.612 405.472 448.105C410.038 447.978 413.463 447.217 417.775 445.568L413.59 432.884C411.433 434.025 408.77 434.66 406.36 434.66C401.667 434.66 398.623 431.869 398.623 426.161V400.159H415.365V387.348H398.749V370.225L383.909 371.874Z" fill="#F89522"/>
<path fill-rule="evenodd" clip-rule="evenodd" d="M426.4 387.222V418.805C426.4 437.451 436.928 448.359 451.261 448.359C459.633 448.359 465.34 445.441 471.682 439.353L472.697 447.344H486.015V387.222H471.302V417.917C471.302 427.176 465.087 434.787 455.954 434.787C446.441 434.787 441.494 427.811 441.494 418.678V387.222H426.4Z" fill="#F89522"/>
<path fill-rule="evenodd" clip-rule="evenodd" d="M509.481 472.458V440.241C513.793 446.836 523.18 448.739 529.522 448.739C548.801 448.739 559.837 434.787 559.837 417.283C559.837 399.652 547.533 385.826 529.014 385.826C522.165 385.826 514.174 388.744 509.481 395.466L508.466 387.221H494.514V472.458H509.481ZM527.873 434.406C517.725 434.406 510.749 426.796 510.749 417.283C510.749 407.896 517.091 400.159 527.873 400.159C538.654 400.159 544.996 407.896 544.996 417.283C544.869 426.796 537.893 434.406 527.873 434.406Z" fill="#F89522"/>
<path fill-rule="evenodd" clip-rule="evenodd" d="M566.559 370.351C566.559 381.894 584.063 381.894 584.063 370.351C584.189 358.809 566.559 358.809 566.559 370.351ZM582.794 447.343H567.954V386.967H582.794V447.343Z" fill="#F89522"/>
<path fill-rule="evenodd" clip-rule="evenodd" d="M651.416 447.344V415.761C651.416 396.862 640.127 386.207 625.921 386.207C618.31 386.207 612.222 389.251 606.134 395.213L605.119 387.095H591.801V447.344H606.514V416.649C606.514 407.516 612.729 399.779 621.862 399.779C631.375 399.779 636.322 406.755 636.322 415.888V447.344H651.416Z" fill="#F89522"/>
<path fill-rule="evenodd" clip-rule="evenodd" d="M709.381 362.107V395.34C705.83 389.124 695.936 385.7 689.594 385.7C672.09 385.7 659.025 396.481 659.025 417.156C659.025 436.943 672.344 448.613 689.974 448.613C697.331 448.613 704.688 446.203 709.381 438.973L710.396 447.217H724.348V361.98H709.381V362.107ZM690.989 399.652C700.375 399.652 708.366 406.755 708.366 417.156C708.366 427.938 700.375 434.787 690.989 434.787C681.476 434.787 673.866 427.557 673.866 417.156C673.993 406.375 681.476 399.652 690.989 399.652Z" fill="#F89522"/>
<path fill-rule="evenodd" clip-rule="evenodd" d="M735.257 370.351C735.257 381.894 752.761 381.894 752.761 370.351C752.761 358.809 735.257 358.809 735.257 370.351Z" fill="#A4CD39"/>
<path d="M751.493 386.968H736.652V447.344H751.493V386.968Z" fill="#3DC5F2"/>
<path fill-rule="evenodd" clip-rule="evenodd" d="M792.081 399.145C815.42 399.145 815.42 435.548 792.081 435.548C782.188 435.548 774.324 428.698 774.324 417.283C774.324 405.74 782.315 399.145 792.081 399.145ZM809.966 395.593C806.541 389.632 798.931 385.826 790.813 385.826C773.309 385.699 759.483 396.608 759.483 417.283C759.483 438.338 772.675 449.373 790.433 449.247C797.155 449.12 806.541 445.695 809.966 438.592L810.727 447.344H824.679V387.222H810.473L809.966 395.593Z" fill="#F89522"/>
<path d="M751.62 456.604H680.589V471.19H751.62V456.604Z" fill="#A4CD39"/>
<path d="M694.795 456.729H680.335V527.887H694.795V456.729Z" fill="#A4CD39"/>
<path d="M694.795 513.301H624.018V527.887H694.795V513.301Z" fill="#A4CD39"/>
<path d="M99.0252 377.201L95.22 392.295H106.255L110.06 377.201H123.505L119.827 392.422H127.057V404.091H116.91L112.217 422.483H120.208V434.279H109.553L106.255 447.978H92.5564L95.8542 434.279H84.6922L81.3944 447.978H67.9493L71.2471 434.279H63.6367V422.483H74.2913L78.9844 403.965H70.6129V392.422H81.7749L85.4533 377.328H99.0252V377.201ZM91.7953 403.203L86.7217 423.244H99.4057L104.479 403.203H91.7953Z" fill="#F89522"/>
</svg>
